<?xml version="1.0" encoding="UTF-8"?>
<svg id="Layer_1" xmlns="http://www.w3.org/2000/svg" version="1.1" viewBox="0 0 500 500">
  <!-- Generator: Adobe Illustrator 29.0.1, SVG Export Plug-In . SVG Version: 2.1.0 Build 192)  -->
  <defs>
    <style>
      .st0 {
        fill: #fff;
      }
    </style>
  </defs>
  <path class="st0" d="M33.5,322l24.9-141.4h115.3l-5.8,33h-68.9l-3.6,20.2h58.3l-5.8,33h-58.3l-3.9,22.2h71.7l-5.8,33H33.5Z"/>
  <path class="st0" d="M233.7,213.6h8.8c24.7,0,33,7.9,27.8,37.3-4.7,26.7-18.5,38.1-40.1,38.1h-9.8l13.3-75.4ZM229.1,322c45.4,0,78.6-20.4,88-73.6,8.2-46.5-16.3-67.7-61.9-67.7h-62l-24.9,141.4h60.9Z"/>
  <path class="st0" d="M381.5,213.6h8.8c24.7,0,33,7.9,27.8,37.3-4.7,26.7-18.5,38.1-40.1,38.1h-9.8l13.3-75.4ZM376.9,322c45.4,0,78.6-20.4,88-73.6,8.2-46.5-16.3-67.7-61.9-67.7h-62l-24.9,141.4h60.9Z"/>
  <path class="st0" d="M221.7,141.2c85-22.1,167.2-7.3,203.9,32.4,8.2,1.3,15.5,3.4,21.8,6.4-38.7-40.9-117.9-64.5-205.8-56.2-56.6,5.4-106.7,23.1-142.7,47.6h48.1c21.7-12.6,47-23,74.8-30.2Z"/>
  <path class="st0" d="M418.7,325c-12.9,4.9-27.5,7.1-43.5,7.1h-16c-2.8,1.5-5.7,3-8.6,4.5h0c-18.1,9-38.1,16.6-59.8,22.2-81.2,21.1-159.8,8.6-198.7-27.2h-14.4c41.8,33.7,114,52.1,193.2,44.6,38.1-3.6,73.2-12.8,103.1-25.9h0c7.5-3.3,14.9-7,22.1-10.9h0c8-4.5,15.6-9.2,22.5-14.3Z"/>
</svg>